<?xml version="1.0" encoding="UTF-8" standalone="no"?>
<!-- Created with Inkscape (http://www.inkscape.org/) -->

<svg
   width="220.01685"
   height="442.14288"
   id="svg3515"
   version="1.1"
   inkscape:version="0.48.1 "
   sodipodi:docname="cars_racer.svg"
   xmlns:inkscape="http://www.inkscape.org/namespaces/inkscape"
   xmlns:sodipodi="http://sodipodi.sourceforge.net/DTD/sodipodi-0.dtd"
   xmlns="http://www.w3.org/2000/svg"
   xmlns:svg="http://www.w3.org/2000/svg"
   xmlns:rdf="http://www.w3.org/1999/02/22-rdf-syntax-ns#"
   xmlns:cc="http://creativecommons.org/ns#"
   xmlns:dc="http://purl.org/dc/elements/1.1/">
  <defs
     id="defs3517">
    <clipPath
       clipPathUnits="userSpaceOnUse"
       id="clipPath872">
      <rect
         style="opacity:0.5;fill:#ff0000"
         id="rect874"
         width="262.43393"
         height="544.36755"
         x="-1417.0177"
         y="419.22672" />
    </clipPath>
  </defs>
  <sodipodi:namedview
     id="base"
     pagecolor="#ffffff"
     bordercolor="#666666"
     borderopacity="1.0"
     inkscape:pageopacity="0.0"
     inkscape:pageshadow="2"
     inkscape:zoom="0.35"
     inkscape:cx="548.3593"
     inkscape:cy="38.214297"
     inkscape:document-units="px"
     inkscape:current-layer="layer1"
     showgrid="false"
     fit-margin-top="0"
     fit-margin-left="0"
     fit-margin-right="0"
     fit-margin-bottom="0"
     inkscape:window-width="1680"
     inkscape:window-height="988"
     inkscape:window-x="-8"
     inkscape:window-y="-8"
     inkscape:window-maximized="1"
     inkscape:showpageshadow="2"
     inkscape:pagecheckerboard="0"
     inkscape:deskcolor="#d1d1d1" />
  <metadata
     id="metadata3520">
    <rdf:RDF>
      <cc:Work
         rdf:about="">
        <dc:format>image/svg+xml</dc:format>
        <dc:type
           rdf:resource="http://purl.org/dc/dcmitype/StillImage" />
        <dc:title />
      </cc:Work>
    </rdf:RDF>
  </metadata>
  <g
     inkscape:label="Layer 1"
     inkscape:groupmode="layer"
     id="layer1"
     transform="translate(56.187267,-242.71932)">
    <g
       id="g3219"
       transform="translate(1340.8503,-234.34036)"
       clip-path="url(#clipPath872)">
      <path
         inkscape:export-ydpi="90"
         inkscape:export-xdpi="90"
         inkscape:export-filename="C:\Users\Dovile\Desktop\doodles\racer\green.png"
         sodipodi:nodetypes="cacaaasccssccscsaaassccsccccaassasssssacssccscccc"
         inkscape:connector-curvature="0"
         id="path2995-4-8-8"
         d="m -1348.48,493.2123 c 5.527,-4.2546 11.8979,-7.47889 18.4491,-9.87282 8.3553,-3.05317 17.2459,-4.7334 26.1044,-5.54556 12.829,-1.17617 25.9138,-1.01194 38.6349,1.02307 10.0669,1.61043 20.0559,4.4712 29.3008,8.76871 7.6873,3.57347 14.8399,8.41374 21.28,13.92646 4.4719,3.82795 8.5838,8.20008 11.8339,13.10806 3.2059,4.84131 5.6019,10.25625 7.348,15.79405 2.2692,7.19694 2.7855,14.86464 3.951,22.29118 1.4614,9.58087 0.7817,32.78738 -0.6844,42.61792 -0.5322,3.56885 -1.2454,16.81803 -1.5847,29.44262 l -0.617,22.9538 3.2385,0.97415 c 3.7688,1.57965 7.1223,4.63154 9.7604,7.42287 4.4623,4.83947 5.8072,9.88919 2.9184,10.95802 -2.1044,0.7786 -14.6576,-5.81971 -15.5842,-8.19148 -0.649,-1.66143 -2.2945,48.12632 -1.9632,59.4028 0.301,10.2463 1.449,16.67628 2.0162,25.02609 0.8021,10.84402 2.0002,21.1557 2.587,31.561 0.4383,4.16649 1.184,10.56244 1.4004,12.49019 2.615,23.29376 3.023,30.89171 2.7139,50.53633 -0.2786,17.70561 -1.536,24.46154 -2.9262,28.46958 -1.8911,5.45247 -6.5974,18.2599 -12.9241,26.52222 -3.6903,4.81937 -8.5726,8.73903 -13.68,12.01918 -3.1955,2.05228 -6.8091,3.41545 -10.3988,4.65547 -10.6572,3.6815 -24.7452,7.22027 -32.8214,8.18127 -10.061,1.19721 -24.4811,1.46934 -25.9699,1.45451 l -7.3581,-0.0733 c -1.6071,0.12033 -7.778,-0.72937 -11.8989,-1.14331 -2.7419,-0.033 -6.8671,-0.49205 -9.1669,-1.02009 -2.2999,-0.52804 -7.3252,-1.50847 -11.1674,-2.17874 -3.508,-0.25192 -31.6117,-9.47429 -36.7995,-14.64104 -3.4458,-2.15902 -7.9127,-5.76601 -9.2343,-9.84532 -8.1547,-10.81861 -12.882,-24.02139 -14.763,-37.39377 -1.5581,-10.81609 0.9435,-49.19023 3.0948,-73.67636 1.0019,-11.40331 4.0681,-22.60061 4.5638,-34.03711 0.9372,-21.62265 0.7236,-35.0298 0.5975,-52.54572 -0.047,-6.51436 -0.2202,-12.67238 -0.5036,-19.53711 -0.2834,-6.86474 -0.6234,-12.59212 -0.7556,-12.72751 -0.1322,-0.13539 -3.3602,1.27675 -7.1734,3.1381 -9.1383,4.46072 -11.0028,4.44615 -10.2123,-0.0797 0.9719,-5.56479 10.2558,-13.9533 15.3743,-13.89168 2.2231,0.0268 1.2963,-8.0214 1.5442,-12.06992 0.2326,-3.79756 -0.056,-11.41388 -0.056,-11.41388 -0.6189,-13.85449 -1.7779,-26.37403 -3.3289,-35.95945 -2.2007,-13.60031 -0.4022,-40.68471 3.4891,-52.54503 1.6784,-5.1154 5.037,-12.01087 8.3884,-17.56763 6.3786,-11.17583 14.3135,-20.77818 22.9831,-26.78116 z"
         style="fill:#000000" />
      <path
         inkscape:export-ydpi="90"
         inkscape:export-xdpi="90"
         inkscape:export-filename="C:\Users\Dovile\Desktop\doodles\racer\green.png"
         inkscape:connector-curvature="0"
         id="path3029-9"
         d="m -1203.8417,645.30214 c -1.8575,-1.08245 -4.6876,-5.84539 -8.6206,-14.50798 -2.1185,-4.66623 -4.5822,-9.44152 -5.4747,-10.61176 -1.4165,-1.85706 -2.8667,-7.66064 -11.4014,-45.62667 -5.3782,-23.92443 -9.6978,-43.59531 -9.5992,-43.71305 0.7027,-0.83905 25.0459,6.73274 32.4741,10.10082 l 3.7233,1.68825 0.7239,5.43728 c 1.5232,11.44036 2.0621,30.74708 1.7557,62.89753 -0.1692,17.746 -0.5021,32.87609 -0.7399,33.62242 -0.4687,1.47123 -1.2177,1.65924 -2.8412,0.71316 z"
         style="fill:#00ff00;fill-opacity:1;fill-rule:evenodd;stroke:#000000;stroke-width:0.603093;stroke-linecap:butt;stroke-linejoin:miter;stroke-miterlimit:4;stroke-dasharray:none;stroke-dashoffset:0;stroke-opacity:1" />
      <path
         inkscape:export-ydpi="90"
         inkscape:export-xdpi="90"
         inkscape:export-filename="C:\Users\Dovile\Desktop\doodles\racer\green.png"
         inkscape:connector-curvature="0"
         id="path3031-6"
         d="m -1372.7869,644.87051 c -0.6296,-2.95355 -1.8952,-49.47727 -1.8574,-68.28024 0.039,-19.25829 0.589,-25.23579 2.7488,-29.85723 0.6211,-1.32907 1.6882,-2.76555 2.3713,-3.19216 0.6831,-0.42661 6.1196,-2.38072 12.081,-4.34246 5.9615,-1.96174 13.0267,-4.64254 15.7005,-5.95734 4.5289,-2.22696 4.8409,-2.30094 4.5608,-1.08124 -0.1654,0.72011 -3.8948,18.94976 -8.2876,40.51032 -7.1166,34.92956 -8.1721,39.47311 -9.6871,41.69797 -2.663,3.9106 -5.623,10.15923 -8.3879,17.70668 -3.3287,9.08641 -4.3109,10.9392 -6.809,12.84461 l -2.084,1.58959 z"
         style="fill:#2aff2a;fill-opacity:1;fill-rule:evenodd;stroke:#000000;stroke-width:0.603093;stroke-linecap:butt;stroke-linejoin:miter;stroke-miterlimit:4;stroke-dasharray:none;stroke-dashoffset:0;stroke-opacity:1" />
      <path
         inkscape:export-ydpi="90"
         inkscape:export-xdpi="90"
         inkscape:export-filename="C:\Users\Dovile\Desktop\doodles\racer\green.png"
         inkscape:connector-curvature="0"
         id="path3033-4"
         d="m -1223.6066,499.77249 c -7.3105,-4.24561 -14.687,-6.24575 -20.0389,-5.43354 -3.3061,0.50175 -4.6879,1.72746 -4.6879,4.15847 v 1.93156 l -5.8801,-1.36614 c -9.2184,-2.14171 -17.983,-2.90745 -33.6224,-2.93753 -15.3379,-0.0295 -21.2722,0.5213 -32.4973,3.01626 -3.6104,0.80245 -6.6636,1.45901 -6.7848,1.45901 -0.1213,0 -0.2205,-0.50229 -0.2205,-1.11619 0,-2.16567 -1.3696,-5.00649 -2.6372,-5.47011 -2.1508,-0.78664 -11.7632,0.47757 -15.6894,2.06344 -1.9953,0.80595 -3.7092,1.38396 -3.8087,1.28448 -0.5129,-0.51286 9.8126,-7.50699 13.9968,-9.48101 16.1129,-7.60164 45.1987,-10.91753 65.3086,-7.44543 17.9021,3.0909 43.1212,13.13775 49.3824,19.67309 2.0745,2.16528 1.3352,2.07712 -2.8206,-0.33636 z"
         style="fill:#2aff2a;fill-opacity:1;fill-rule:evenodd;stroke:#000000;stroke-width:0.603093;stroke-linecap:butt;stroke-linejoin:miter;stroke-miterlimit:4;stroke-dasharray:none;stroke-dashoffset:0;stroke-opacity:1" />
      <path
         inkscape:export-ydpi="90"
         inkscape:export-xdpi="90"
         inkscape:export-filename="C:\Users\Dovile\Desktop\doodles\racer\green.png"
         inkscape:connector-curvature="0"
         id="path3035-0"
         d="m -1334.9043,531.08897 c 0.4018,-2.13835 1.0358,-4.2556 1.4087,-4.70501 0.373,-0.44941 1.3586,-4.50099 2.1902,-9.00351 0.8315,-4.50252 1.8457,-8.91902 2.2537,-9.81445 1.0384,-2.2789 3.1664,-3.20369 11.2538,-4.89051 10.6567,-2.22271 26.9429,-3.05317 42.9884,-2.19204 13.3535,0.71665 17.7834,1.26257 23.4858,2.89427 l 3.3422,0.95633 0.9907,4.61651 c 4.0703,18.96777 5.2954,25.01716 5.1051,25.2075 -0.1204,0.12036 -1.6882,-0.28639 -3.484,-0.90389 -22.1348,-7.61098 -60.2254,-7.39084 -85.5874,0.49465 -2.1561,0.67036 -4.0906,1.2209 -4.299,1.22344 -0.2083,0.003 -0.05,-1.74495 0.3518,-3.88329 z"
         style="fill:#2aff2a;fill-opacity:1;fill-rule:evenodd;stroke:#000000;stroke-width:0.603093;stroke-linecap:butt;stroke-linejoin:miter;stroke-miterlimit:4;stroke-dasharray:none;stroke-dashoffset:0;stroke-opacity:1" />
      <path
         inkscape:export-ydpi="90"
         inkscape:export-xdpi="90"
         inkscape:export-filename="C:\Users\Dovile\Desktop\doodles\racer\green.png"
         inkscape:connector-curvature="0"
         id="path3037-8"
         d="m -1229.34,609.7324 c -8.4,-8.51242 -21.2969,-18.4185 -36.4831,-28.02268 -9.9814,-6.31255 -11.2711,-6.85257 -17.4897,-7.32337 -6.0469,-0.45781 -10.293,0.70167 -20.5051,5.59933 -12.0261,5.76763 -24.5761,13.37443 -39.364,23.85928 -3.2746,2.32174 -6.0448,4.12758 -6.156,4.01297 -0.3087,-0.31825 8.9651,-45.93882 9.5093,-46.77867 0.5833,-0.90021 8.4392,-3.42562 15.4451,-4.96507 21.4655,-4.71675 52.9888,-3.3694 85.7993,3.6672 l 2.838,0.60865 0.9154,4.02924 c 3.9068,17.19643 10.1726,48.19458 9.9043,48.9992 -0.1077,0.32337 -2.0938,-1.33537 -4.4135,-3.68608 z"
         style="fill:#2aff2a;fill-opacity:1;fill-rule:evenodd;stroke:#000000;stroke-width:0.603093;stroke-linecap:butt;stroke-linejoin:miter;stroke-miterlimit:4;stroke-dasharray:none;stroke-dashoffset:0;stroke-opacity:1" />
      <path
         inkscape:export-ydpi="90"
         inkscape:export-xdpi="90"
         inkscape:export-filename="C:\Users\Dovile\Desktop\doodles\racer\green.png"
         inkscape:connector-curvature="0"
         id="path3039-5"
         d="m -1240.7947,554.53055 c -5.4192,-1.51611 -16.7336,-3.77777 -24.4253,-4.88246 -6.0551,-0.86964 -11.3957,-1.07836 -27.1391,-1.06063 -20.7587,0.0234 -27.196,0.63588 -40.9076,3.89239 -2.8095,0.66726 -5.1925,1.12893 -5.2955,1.02593 -0.103,-0.10299 -0.031,-0.78407 0.1596,-1.5135 0.6275,-2.39955 14.2083,-5.8838 30.1928,-7.74621 11.3966,-1.32784 37.3679,-0.85398 48.7327,0.88917 11.6733,1.79046 20.5775,4.25279 21.5887,5.97007 0.6023,1.02291 1.0746,4.37293 0.6094,4.32278 -0.2751,-0.0297 -1.8572,-0.43355 -3.5157,-0.89754 z"
         style="fill:#2aff2a;fill-opacity:1;fill-rule:evenodd;stroke:#000000;stroke-width:0.603093;stroke-linecap:butt;stroke-linejoin:miter;stroke-miterlimit:4;stroke-dasharray:none;stroke-dashoffset:0;stroke-opacity:1" />
      <path
         inkscape:export-ydpi="90"
         inkscape:export-xdpi="90"
         inkscape:export-filename="C:\Users\Dovile\Desktop\doodles\racer\green.png"
         inkscape:connector-curvature="0"
         id="path3041-7"
         d="m -1336.9459,543.27337 c 0.3085,-1.07584 0.561,-2.00645 0.561,-2.06803 0,-0.18673 6.5907,-2.05484 12.6649,-3.58979 22.2731,-5.6284 44.4505,-6.52398 63.9279,-2.58155 7.4646,1.51092 18.5229,4.73112 19.2174,5.59616 0.3,0.37355 0.7292,1.5394 0.9538,2.59078 l 0.4085,1.91161 -5.6159,-1.68381 c -23.1472,-6.94021 -58.1559,-6.72159 -86.5998,0.5408 -6.3084,1.61068 -6.1896,1.62611 -5.5178,-0.71617 z"
         style="fill:#2aff2a;fill-opacity:1;fill-rule:evenodd;stroke:#000000;stroke-width:0.603093;stroke-linecap:butt;stroke-linejoin:miter;stroke-miterlimit:4;stroke-dasharray:none;stroke-dashoffset:0;stroke-opacity:1" />
      <path
         inkscape:export-ydpi="90"
         inkscape:export-xdpi="90"
         inkscape:export-filename="C:\Users\Dovile\Desktop\doodles\racer\green.png"
         inkscape:connector-curvature="0"
         id="path3043-8"
         d="m -1242.9055,909.81397 c 0,-1.72957 3.6047,-29.35769 3.8907,-29.82052 1.1717,-1.89582 8.8191,-60.39758 10.5732,-80.88362 0.4767,-5.56766 1.1373,-8.60329 3.3076,-15.19851 3.0004,-9.11811 5.008,-20.23523 5.5828,-30.91641 0.2983,-5.54222 0.586,-6.98141 1.7479,-8.74484 0.7649,-1.16096 3.0288,-6.35968 5.0308,-11.55272 l 3.6402,-9.44189 -0.075,-21.61739 c -0.041,-11.88956 -0.2449,-27.99509 -0.4524,-35.79007 -0.2386,-8.96667 -0.1577,-14.56036 0.2202,-15.22809 0.8473,-1.49685 9.0316,-1.55841 9.6019,-0.0722 0.4421,1.152 -0.04,21.76782 -0.8724,37.3132 -1.2641,23.60681 -0.6566,43.21148 2.4014,77.49742 3.4236,38.38345 3.7206,58.94572 1.1807,81.71908 -2.1213,19.01953 -4.8547,29.57514 -10.5891,40.89142 -2.8512,5.62659 -11.997,13.82596 -19.8095,17.7596 -2.3652,1.19088 -13.6097,4.97527 -14.783,4.97527 -0.3278,0 -0.5959,-0.40037 -0.5959,-0.88971 z m 10.6253,-30.27283 c 2.12,-4.79362 8.5264,-26.85679 13.8044,-47.54107 6.9441,-27.21371 11.2857,-41.56442 12.6545,-41.82802 2.4354,-0.46902 2.7199,1.20258 2.7199,15.98061 0,8.69115 0.2741,15.24355 0.7206,17.22365 l 0.7205,3.19592 0.4214,-3.17973 c 0.2318,-1.74885 0.7471,-12.13983 1.1452,-23.09105 0.7951,-21.87221 0.1622,-42.32513 -1.5617,-50.47278 -1.5526,-7.3374 -2.4211,-5.95518 -4.4528,7.08634 -2.5891,16.61931 -21.1468,97.42919 -22.7001,98.84787 -0.4136,0.37776 -0.2381,-1.3722 1.2335,-12.30405 1.3229,-9.82684 3.8415,-32.46493 4.2272,-37.99485 0.3168,-4.54392 0.2857,-4.71513 -0.5348,-2.94145 -1.769,3.82409 -11.7809,71.00654 -11.7853,79.08192 -10e-4,2.57902 1.827,1.46538 3.3875,-2.06331 z"
         style="fill:#00ff00;fill-opacity:1;fill-rule:evenodd;stroke:#000000;stroke-width:0.603093;stroke-linecap:butt;stroke-linejoin:miter;stroke-miterlimit:4;stroke-dasharray:none;stroke-dashoffset:0;stroke-opacity:1" />
      <path
         inkscape:export-ydpi="90"
         inkscape:export-xdpi="90"
         inkscape:export-filename="C:\Users\Dovile\Desktop\doodles\racer\green.png"
         inkscape:connector-curvature="0"
         id="path3045-07"
         d="m -1336.0834,908.34835 c -10.6242,-3.29586 -16.9512,-6.45814 -24.4995,-12.24508 -4.2136,-3.23043 -4.7867,-3.93863 -6.8654,-8.48402 -8.4428,-18.46162 -9.7099,-25.31303 -10.3417,-55.92073 -0.4068,-19.7029 0.2063,-35.0584 2.5041,-62.72165 0.8129,-9.78518 1.5632,-19.0125 1.6675,-20.50515 0.1043,-1.49266 0.1916,9.09162 0.194,23.52061 0,23.23475 0.1495,27.32535 1.2742,35.77423 0.6984,5.24683 1.3894,9.65923 1.5356,9.80534 0.1461,0.14612 0.4607,-5.09661 0.6992,-11.65051 0.4259,-11.70798 0.9748,-17.2548 1.7877,-18.06775 0.2259,-0.22585 0.8519,0.0306 1.3911,0.56978 0.6697,0.66969 2.0092,6.58365 4.2265,18.65998 5.0231,27.3576 7.0505,35.73263 13.4775,55.6744 4.0012,12.4149 8.4757,21.40979 10.6503,21.40979 1.0408,0 1.0082,-0.57773 -0.4179,-7.40707 -0.665,-3.18447 -2.1629,-13.8257 -3.3286,-23.64718 -2.4356,-20.52034 -4.3708,-32.35871 -7.0164,-42.92294 -3.7378,-14.92565 -3.8295,-7.01738 -0.2249,19.3973 1.1769,8.62422 2.6994,19.28047 3.3833,23.68054 0.6839,4.40007 1.1565,8.43562 1.0503,8.96788 -0.1063,0.53227 -2.1714,-6.0531 -4.5891,-14.63415 -3.7683,-13.37472 -4.8627,-18.44294 -7.6664,-35.50396 -4.5517,-27.69784 -11.7599,-72.07692 -11.7599,-72.4024 0,-0.14866 -0.5268,-0.27029 -1.1706,-0.27029 -1.3444,0 -1.8472,0.65379 -2.5103,3.26437 -0.2602,1.02406 -0.2847,-1.66617 -0.054,-5.97828 0.5721,-10.71962 0.3049,-44.41078 -0.4973,-62.70045 -0.3632,-8.28086 -0.4846,-16.694 -0.2699,-18.69587 l 0.3904,-3.63977 3.5862,-1.13355 c 1.9724,-0.62346 3.7797,-0.93984 4.0161,-0.70307 0.2365,0.23677 0.2943,9.4314 0.1284,20.43252 -0.3845,25.50514 -0.2052,39.23569 0.5927,45.38676 0.795,6.12946 3.7733,18.37662 5.3398,21.95806 1.0485,2.39721 3.3887,12.70175 6.4122,28.23435 0.5369,2.75839 2.3197,9.2718 3.9618,14.47423 2.5325,8.02335 3.0811,10.64031 3.6148,17.2427 0.3461,4.28107 0.7447,7.97054 0.8858,8.19883 0.1411,0.22828 0.6725,5.27444 1.1808,11.21367 1.2862,15.02785 1.3064,15.18856 4.5882,36.43004 4.5375,29.36907 7.096,44.7907 8.4083,50.68194 0.6606,2.96611 1.2012,5.53149 1.2012,5.70085 0,0.55965 -1.4475,0.2582 -6.9356,-1.4443 v 0 z"
         style="fill:#2aff2a;fill-opacity:1;fill-rule:evenodd;stroke:#000000;stroke-width:0.603093;stroke-linecap:butt;stroke-linejoin:miter;stroke-miterlimit:4;stroke-dasharray:none;stroke-dashoffset:0;stroke-opacity:1" />
      <path
         inkscape:export-ydpi="90"
         inkscape:export-xdpi="90"
         inkscape:export-filename="C:\Users\Dovile\Desktop\doodles\racer\green.png"
         inkscape:connector-curvature="0"
         id="path3047-7"
         d="m -1238.6839,784.6482 c -6.3699,-0.73715 -83.6383,-2.02038 -92.0689,-1.52902 -4.2586,0.24821 -8.8092,0.49227 -10.1124,0.54237 l -2.3694,0.0911 -1.406,-5.42783 c -2.3762,-9.17372 -4.3381,-19.13761 -5.3635,-27.23955 -0.8112,-6.40976 -0.9668,-13.64413 -0.9057,-42.09754 0.069,-31.93438 0.2785,-36.4789 1.6227,-35.13467 0.2123,0.21228 0.6069,8.06455 0.8769,17.44948 0.7027,24.42278 1.9411,45.27364 3.6103,60.78774 1.2718,11.82105 4.0727,22.84218 3.2919,12.95334 -0.1827,-2.31467 -0.9159,-11.53607 -1.6292,-20.492 -1.0663,-13.38814 -1.3051,-21.3772 -1.3432,-44.93041 l -0.046,-28.64691 3.317,-0.44055 c 5.3869,-0.71546 69.7696,-1.16876 91.663,-0.64537 l 20.1964,0.48283 0.9117,1.80928 c 1.0908,2.16461 1.1,4.3603 0.1171,28.04381 -1.0089,24.30861 -1.665,35.60865 -3.133,53.95868 -0.6891,8.61426 -1.1648,16.34892 -1.057,17.18814 0.3109,2.42076 1.5639,-3.7485 3.181,-15.66228 2.4956,-18.38529 3.649,-33.50519 4.5407,-59.52196 0.3604,-10.51685 0.903,-19.54216 1.2057,-20.05624 0.3372,-0.57272 0.441,4.55379 0.2681,13.23799 -0.1552,7.79498 -0.4217,23.55068 -0.5921,35.01268 -0.4693,31.55713 -2.3881,48.79655 -6.5246,58.61748 -1.0562,2.5078 -0.9747,2.49149 -8.2512,1.64942 v 0 z"
         style="fill:#00ff00;fill-opacity:1;fill-rule:evenodd;stroke:#000000;stroke-width:0.603093;stroke-linecap:butt;stroke-linejoin:miter;stroke-miterlimit:4;stroke-dasharray:none;stroke-dashoffset:0;stroke-opacity:1" />
      <path
         inkscape:export-ydpi="90"
         inkscape:export-xdpi="90"
         inkscape:export-filename="C:\Users\Dovile\Desktop\doodles\racer\green.png"
         inkscape:connector-curvature="0"
         id="path3049-2"
         d="m -1298.7671,915.53024 c -8.5255,-0.5081 -20.4537,-2.26884 -25.556,-3.77233 -2.7137,-0.79966 -2.714,-0.79997 -3.7576,-4.99785 -1.7046,-6.85651 -2.4254,-11.65158 -2.0041,-13.33041 0.3773,-1.50325 0.5289,-1.55751 3.2296,-1.15572 9.0896,1.35232 12.6832,1.63508 26.3543,2.07371 16.4676,0.52836 38.199,-0.0186 44.2211,-1.11291 2.0976,-0.38119 5.6936,-1.32901 7.991,-2.10628 l 4.1771,-1.41322 v 4.0268 c 0,3.6691 -0.7277,11.38731 -1.5213,16.13564 -0.3094,1.85074 -0.4192,1.90731 -5.5789,2.87292 -14.8476,2.77869 -31.3686,3.74435 -47.5552,2.77965 z"
         style="fill:#00ff00;fill-opacity:1;fill-rule:evenodd;stroke:#000000;stroke-width:0.603093;stroke-linecap:butt;stroke-linejoin:miter;stroke-miterlimit:4;stroke-dasharray:none;stroke-dashoffset:0;stroke-opacity:1" />
      <path
         inkscape:export-ydpi="90"
         inkscape:export-xdpi="90"
         inkscape:export-filename="C:\Users\Dovile\Desktop\doodles\racer\green.png"
         inkscape:connector-curvature="0"
         id="path3051-6"
         d="m -1376.0454,876.77971 c -1.7514,-2.17457 -5.1413,-10.13445 -6.1701,-14.48824 -1.8676,-7.90308 -2.5945,-20.16196 -2.1538,-36.32233 0.6468,-23.71764 3.0099,-52.74346 4.8914,-60.08118 2.5059,-9.77235 3.5363,-34.93261 3.0844,-75.31315 -0.2175,-19.44035 -0.1513,-33.09243 0.158,-32.56701 0.2928,0.49755 0.5971,19.63067 0.6761,42.51804 l 0.1437,41.6134 -1.8598,21.4098 c -3.0696,35.33812 -3.3485,41.33574 -2.958,63.62629 0.4163,23.76394 1.5093,35.98309 3.9818,44.51579 1.587,5.47682 1.6436,6.87321 0.2063,5.08859 z"
         style="fill:#008000;fill-opacity:1;fill-rule:evenodd;stroke:#000000;stroke-width:0.603093;stroke-linecap:butt;stroke-linejoin:miter;stroke-miterlimit:4;stroke-dasharray:none;stroke-dashoffset:0;stroke-opacity:1" />
      <path
         inkscape:export-ydpi="90"
         inkscape:export-xdpi="90"
         inkscape:export-filename="C:\Users\Dovile\Desktop\doodles\racer\green.png"
         inkscape:connector-curvature="0"
         id="path3053-9"
         d="m -1199.4829,877.55729 c 0,-0.31866 0.8051,-4.186 1.789,-8.59407 2.4719,-11.07412 3.3863,-17.85922 4.5686,-33.89895 1.3909,-18.86979 0.5225,-37.36722 -3.7256,-79.35544 l -2.1661,-21.4098 0.4504,-32.26546 c 0.2478,-17.74601 0.6179,-35.11508 0.8225,-38.59794 0.2046,-3.48286 0.3721,10.49382 0.3721,31.05928 0,26.13038 0.2332,39.66219 0.7745,44.93041 0.426,4.14627 1.445,14.45915 2.2643,22.91753 0.8194,8.45838 1.9256,19.31405 2.4582,24.12371 0.5327,4.80967 1.2079,11.05168 1.5005,13.87114 0.7619,7.34134 0.7156,39.74118 -0.072,50.0567 -0.7295,9.55988 -1.7623,13.47055 -5.9534,22.54223 -2.2165,4.79746 -3.0835,6.09671 -3.0835,4.62066 z"
         style="fill:#008000;fill-opacity:1;fill-rule:evenodd;stroke:#000000;stroke-width:0.603093;stroke-linecap:butt;stroke-linejoin:miter;stroke-miterlimit:4;stroke-dasharray:none;stroke-dashoffset:0;stroke-opacity:1" />
      <path
         inkscape:export-ydpi="90"
         inkscape:export-xdpi="90"
         inkscape:export-filename="C:\Users\Dovile\Desktop\doodles\racer\green.png"
         inkscape:connector-curvature="0"
         id="path3055-77"
         d="m -1184.104,662.91384 c -1.3268,-0.60412 -3.9964,-2.59806 -5.9324,-4.43099 -2.6968,-2.55316 -3.4726,-3.66842 -3.317,-4.76851 0.4658,-3.29442 6.1046,-1.15052 10.6975,4.06729 2.4889,2.82749 2.7773,3.55372 2.1059,5.30313 -0.4547,1.18517 -0.5899,1.17867 -3.554,-0.17092 z"
         style="fill:#008000;fill-opacity:1;fill-rule:evenodd;stroke:#000000;stroke-width:0.603093;stroke-linecap:butt;stroke-linejoin:miter;stroke-miterlimit:4;stroke-dasharray:none;stroke-dashoffset:0;stroke-opacity:1" />
      <path
         inkscape:export-ydpi="90"
         inkscape:export-xdpi="90"
         inkscape:export-filename="C:\Users\Dovile\Desktop\doodles\racer\green.png"
         inkscape:connector-curvature="0"
         id="path3057-77"
         d="m -1197.6578,634.45702 c 0.01,-5.78818 0.2762,-22.32951 0.5945,-36.7585 0.5953,-26.98439 0.2877,-36.4611 -1.5663,-48.24743 -1.3174,-8.37541 -2.4092,-12.11188 -5.6234,-19.24525 -3.123,-6.93077 -6.3994,-16.2244 -5.8969,-16.72684 0.5226,-0.5226 6.4033,8.25322 8.5458,12.75302 2.1903,4.6001 5.1138,14.52988 6.6586,22.61598 1.519,7.95123 1.7938,23.13875 0.6712,37.09021 -0.5339,6.63402 -1.2601,22.37474 -1.6139,34.97938 -0.3553,12.6596 -0.8988,23.17397 -1.2143,23.49046 -0.3594,0.36062 -0.5652,-3.32709 -0.5553,-9.95103 z"
         style="fill:#008000;fill-opacity:1;fill-rule:evenodd;stroke:#000000;stroke-width:0.603093;stroke-linecap:butt;stroke-linejoin:miter;stroke-miterlimit:4;stroke-dasharray:none;stroke-dashoffset:0;stroke-opacity:1" />
      <path
         inkscape:export-ydpi="90"
         inkscape:export-xdpi="90"
         inkscape:export-filename="C:\Users\Dovile\Desktop\doodles\racer\green.png"
         inkscape:connector-curvature="0"
         id="path3059-9"
         d="m -1376.968,637.80419 c -0.2626,-3.98042 -0.7511,-11.82487 -1.0855,-17.43214 -0.3345,-5.60726 -1.155,-14.69888 -1.8235,-20.2036 -0.6684,-5.50473 -1.3686,-15.97921 -1.556,-23.27664 -0.437,-17.01965 0.5853,-26.18088 4.105,-36.78866 2.387,-7.19376 9.3533,-22.44284 9.9707,-21.82547 0.1777,0.17766 -1.7402,6.56096 -4.262,14.18511 -6.2962,19.03567 -6.5572,21.01029 -6.1929,46.8414 0.1591,11.27783 0.6,25.25451 0.9797,31.05927 0.3797,5.80477 0.6119,15.98196 0.5161,22.61598 l -0.1742,12.06186 z"
         style="fill:#008000;fill-opacity:1;fill-rule:evenodd;stroke:#000000;stroke-width:0.603093;stroke-linecap:butt;stroke-linejoin:miter;stroke-miterlimit:4;stroke-dasharray:none;stroke-dashoffset:0;stroke-opacity:1" />
      <path
         inkscape:export-ydpi="90"
         inkscape:export-xdpi="90"
         inkscape:export-filename="C:\Users\Dovile\Desktop\doodles\racer\green.png"
         inkscape:connector-curvature="0"
         id="path3061-0"
         d="m -1393.6336,662.31377 c -1.1056,-2.06588 2.4666,-6.15403 7.6843,-8.79417 4.4555,-2.25445 7.3985,0.40973 3.9663,3.59058 -1.7915,1.66025 -6.7765,4.65509 -9.4232,5.66104 -1.3689,0.5203 -1.7455,0.44294 -2.2274,-0.45745 z"
         style="fill:#008000;fill-opacity:1;fill-rule:evenodd;stroke:#000000;stroke-width:0.603093;stroke-linecap:butt;stroke-linejoin:miter;stroke-miterlimit:4;stroke-dasharray:none;stroke-dashoffset:0;stroke-opacity:1" />
      <path
         inkscape:export-ydpi="90"
         inkscape:export-xdpi="90"
         inkscape:export-filename="C:\Users\Dovile\Desktop\doodles\racer\green.png"
         inkscape:connector-curvature="0"
         id="path3063-0"
         d="m -1297.1839,885.00287 c -13.7432,-1.19513 -24.9177,-3.40847 -26.4343,-5.23586 -0.3552,-0.42801 -1.3261,-2.93752 -2.1575,-5.57669 -3.1167,-9.89391 -5.1736,-20.75843 -6.6655,-35.20779 -1.3336,-12.91581 -3.594,-49.44826 -3.0906,-49.95071 0.5683,-0.56722 92.9701,-0.58089 95.0424,-0.0141 l 1.5115,0.41345 -0.7337,15.55505 c -1.3949,29.57344 -5.7252,65.42204 -8.9571,74.1508 -1.0939,2.95463 -2.9443,4.02493 -8.7296,5.04941 -3.7765,0.66876 -34.2845,1.29479 -39.7856,0.8164 v 0 z"
         style="fill:#008000;fill-opacity:1;fill-rule:evenodd;stroke:#000000;stroke-width:0.603093;stroke-linecap:butt;stroke-linejoin:miter;stroke-miterlimit:4;stroke-dasharray:none;stroke-dashoffset:0;stroke-opacity:1" />
      <path
         inkscape:export-ydpi="90"
         inkscape:export-xdpi="90"
         inkscape:export-filename="C:\Users\Dovile\Desktop\doodles\racer\green.png"
         inkscape:connector-curvature="0"
         id="path3065-0"
         d="m -1347.2073,661.65529 c -4.8339,-0.79847 -8.2197,-6.378 -10.082,-16.61399 -0.9842,-5.40943 -0.7156,-9.07324 1.0493,-14.3121 2.7868,-8.27255 9.0151,-15.8807 18.3509,-22.4166 5.3342,-3.73442 41.3049,-25.06619 44.9073,-26.63149 1.8894,-0.82096 4.0682,-1.17074 7.2926,-1.17074 4.1461,0 5.0512,0.22992 9.2047,2.33813 10.6951,5.42855 32.0307,22.41161 48.5262,38.62667 6.4669,6.35698 7.5158,7.6659 8.252,10.29809 1.182,4.22614 2.351,15.28558 2.0009,18.92922 -0.4314,4.49019 -2.7099,8.55314 -5.6188,10.01923 -2.3413,1.18003 -3.6813,1.20803 -61.7978,1.29128 -32.6726,0.0468 -60.611,-0.11417 -62.0853,-0.3577 z"
         style="fill:#333333;fill-opacity:1;fill-rule:evenodd;stroke:#000000;stroke-width:0.603093;stroke-linecap:butt;stroke-linejoin:miter;stroke-miterlimit:4;stroke-dasharray:none;stroke-dashoffset:0;stroke-opacity:1" />
      <path
         inkscape:export-ydpi="90"
         inkscape:export-xdpi="90"
         inkscape:export-filename="C:\Users\Dovile\Desktop\doodles\racer\green.png"
         inkscape:connector-curvature="0"
         id="path3067-5"
         d="m -1358.9775,724.348 -2.389,-6.93556 0.1944,-28.45135 c 0.1069,-15.64824 0.3709,-29.31421 0.5866,-30.36882 l 0.3921,-1.91748 2.4055,3.4955 2.4055,3.49549 -0.1218,20.54086 c -0.067,11.29746 -0.3384,26.51147 -0.6031,33.80889 l -0.4812,13.26804 z"
         style="fill:#333333;fill-opacity:1;fill-rule:evenodd;stroke:#000000;stroke-width:0.603093;stroke-linecap:butt;stroke-linejoin:miter;stroke-miterlimit:4;stroke-dasharray:none;stroke-dashoffset:0;stroke-opacity:1" />
      <path
         inkscape:export-ydpi="90"
         inkscape:export-xdpi="90"
         inkscape:export-filename="C:\Users\Dovile\Desktop\doodles\racer\green.png"
         inkscape:connector-curvature="0"
         id="path3069-75"
         d="m -1218.7635,701.47797 c -0.016,-30.34767 0.097,-34.75722 0.9101,-35.65625 0.5106,-0.56424 1.6946,-2.84187 2.631,-5.06139 l 1.7025,-4.0355 0.4459,31.05723 0.446,31.05723 -2.539,7.72987 c -1.3964,4.25143 -2.7728,8.13696 -3.0585,8.63451 -0.2954,0.51425 -0.5276,-14.04003 -0.538,-33.7257 z"
         style="fill:#333333;fill-opacity:1;fill-rule:evenodd;stroke:#000000;stroke-width:0.603093;stroke-linecap:butt;stroke-linejoin:miter;stroke-miterlimit:4;stroke-dasharray:none;stroke-dashoffset:0;stroke-opacity:1" />
      <path
         inkscape:export-ydpi="90"
         inkscape:export-xdpi="90"
         inkscape:export-filename="C:\Users\Dovile\Desktop\doodles\racer\green.png"
         inkscape:connector-curvature="0"
         id="path3071-6"
         d="m -1209.7354,536.77767 c -1.8085,-1.17759 -7.4246,-3.0396 -16.2999,-5.40413 -9.8194,-2.61607 -12.2762,-3.62033 -13.2337,-5.40952 -1.4054,-2.62591 -5.1684,-25.79968 -4.5208,-27.84013 0.5091,-1.60381 2.7529,-1.43391 7.9029,0.59839 10.5465,4.16191 17.354,9.55098 21.5407,17.05245 2.1265,3.81029 5.7933,13.69309 6.5933,17.77085 0.4545,2.31652 -0.6424,4.10473 -1.9825,3.23209 z"
         style="fill:#999999;fill-opacity:1;fill-rule:evenodd;stroke:#000000;stroke-width:0.603093;stroke-linecap:butt;stroke-linejoin:miter;stroke-miterlimit:4;stroke-dasharray:none;stroke-dashoffset:0;stroke-opacity:1" />
      <path
         inkscape:export-ydpi="90"
         inkscape:export-xdpi="90"
         inkscape:export-filename="C:\Users\Dovile\Desktop\doodles\racer\green.png"
         inkscape:connector-curvature="0"
         id="path3073-8"
         d="m -1367.3797,537.64146 c -1.3035,-3.39694 0.7893,-12.94599 4.5319,-20.67829 4.5616,-9.42423 14.3855,-17.43421 23.7722,-19.38288 2.8173,-0.58488 3.5799,-0.54953 4.755,0.22044 1.8922,1.23984 2.051,2.63942 1.1388,10.03696 -1.6979,13.76888 -3.3378,17.92416 -8.1861,20.74246 -2.305,1.3399 -24.1371,10.01527 -25.204,10.01527 -0.2429,0 -0.6064,-0.42928 -0.8078,-0.95396 z"
         style="fill:#999999;fill-opacity:1;fill-rule:evenodd;stroke:#000000;stroke-width:0.603093;stroke-linecap:butt;stroke-linejoin:miter;stroke-miterlimit:4;stroke-dasharray:none;stroke-dashoffset:0;stroke-opacity:1" />
    </g>
  </g>
</svg>
